<?xml version="1.0" encoding="UTF-8" standalone="no"?>
<svg
   xmlns:bx="https://boxy-svg.com"
   xmlns:dc="http://purl.org/dc/elements/1.1/"
   xmlns:cc="http://creativecommons.org/ns#"
   xmlns:rdf="http://www.w3.org/1999/02/22-rdf-syntax-ns#"
   xmlns:svg="http://www.w3.org/2000/svg"
   xmlns="http://www.w3.org/2000/svg"
   xmlns:sodipodi="http://sodipodi.sourceforge.net/DTD/sodipodi-0.dtd"
   xmlns:inkscape="http://www.inkscape.org/namespaces/inkscape"
   viewBox="0 0 500 500.00003"
   version="1.1"
   id="svg142"
   sodipodi:docname="JEM Media.svg"
   inkscape:version="1.0.1 (3bc2e813f5, 2020-09-07)"
   width="500"
   height="500.00003">
  <title
     id="title34">JEM Media SVG Logo</title>
  <metadata
     id="metadata148">
    <rdf:RDF>
      <cc:Work
         rdf:about="">
        <dc:format>image/svg+xml</dc:format>
        <dc:type
           rdf:resource="http://purl.org/dc/dcmitype/StillImage" />
        <dc:title>JEM Media SVG Logo</dc:title>
        <dc:date>2020-01-07</dc:date>
        <dc:creator>
          <cc:Agent>
            <dc:title>Jam Education Media</dc:title>
          </cc:Agent>
        </dc:creator>
        <dc:publisher>
          <cc:Agent>
            <dc:title>Jam Education Media</dc:title>
          </cc:Agent>
        </dc:publisher>
        <dc:source>JEM Media</dc:source>
        <dc:language>English</dc:language>
        <dc:description>Logo for JEM Media (Jam Education Media) in Vector SVG Format</dc:description>
        <dc:contributor>
          <cc:Agent>
            <dc:title>Emmeline Williamson</dc:title>
          </cc:Agent>
        </dc:contributor>
      </cc:Work>
    </rdf:RDF>
  </metadata>
  <defs
     id="defs146" />
  <sodipodi:namedview
     pagecolor="#ffffff"
     bordercolor="#666666"
     borderopacity="1"
     objecttolerance="10"
     gridtolerance="10"
     guidetolerance="10"
     inkscape:pageopacity="0"
     inkscape:pageshadow="2"
     inkscape:window-width="3840"
     inkscape:window-height="2126"
     id="namedview144"
     showgrid="false"
     inkscape:zoom="2.4522463"
     inkscape:cx="264.90459"
     inkscape:cy="265.78564"
     inkscape:window-x="2869"
     inkscape:window-y="-11"
     inkscape:window-maximized="1"
     inkscape:current-layer="svg142"
     inkscape:document-rotation="0"
     inkscape:pagecheckerboard="true"
     fit-margin-top="0"
     fit-margin-left="0"
     fit-margin-right="0"
     fit-margin-bottom="0" />
  <polygon
     style="fill:#1eb5ba;stroke:#1eb5ba;stroke-width:0px"
     points="82.204002,436.991 57.044998,409.13501 88.225998,381.134 112.776,407.556 "
     id="polygon90"
     transform="matrix(1.0288553,0,0,1.0140651,-6.9591766,-2.3830523)"
     inkscape:export-xdpi="95.995522"
     inkscape:export-ydpi="95.995522" />
  <polygon
     style="fill:#1eb5ba;stroke:#1eb5ba;stroke-width:0px"
     points="35.509998,380.879 19.249001,348.431 56.171001,330.332 71.679001,363.78601 "
     id="polygon92"
     transform="matrix(1.0288553,0,0,1.0140651,-6.9591766,-2.3830523)"
     inkscape:export-xdpi="95.995522"
     inkscape:export-ydpi="95.995522" />
  <polygon
     style="fill:#1eb5ba;stroke:#1eb5ba;stroke-width:0px"
     points="11.616,313.64401 6.98,277.034 47.633999,271.70801 52.091,308.60599 "
     id="polygon94"
     transform="matrix(1.0288553,0,0,1.0140651,-6.9591766,-2.3830523)"
     inkscape:export-xdpi="95.995522"
     inkscape:export-ydpi="95.995522" />
  <polygon
     style="fill:#1eb5ba;stroke:#1eb5ba;stroke-width:0px"
     points="7.2389998,248.489 6.7639999,212.597 47.993,213.155 47.856998,249.62199 "
     id="polygon96"
     transform="matrix(1.0288553,0,0,1.0140651,-6.9591766,-2.3830523)"
     inkscape:export-xdpi="95.995522"
     inkscape:export-ydpi="95.995522" />
  <polygon
     style="fill:#1eb5ba;stroke:#1eb5ba;stroke-width:0px"
     points="12.692,178.024 26.139,144.284 63.492001,159.62399 50.153,194.08299 "
     id="polygon98"
     transform="matrix(1.0288553,0,0,1.0140651,-6.9591766,-2.3830523)"
     inkscape:export-xdpi="95.995522"
     inkscape:export-ydpi="95.995522" />
  <polygon
     style="fill:#1eb5ba;stroke:#1eb5ba;stroke-width:0px"
     points="40.084999,112.797 64.725998,85.084999 95.476997,112.767 70.226997,140.481 "
     id="polygon100"
     transform="matrix(1.0288553,0,0,1.0140651,-6.9591766,-2.3830523)"
     inkscape:export-xdpi="95.995522"
     inkscape:export-ydpi="95.995522" />
  <polygon
     style="fill:#1eb5ba;stroke:#1eb5ba;stroke-width:0px"
     points="87.156998,65.653999 115.242,42.676998 141.97501,74.234001 112.994,98.072998 "
     id="polygon102"
     transform="matrix(1.0288553,0,0,1.0140651,-6.9591766,-2.3830523)"
     inkscape:export-xdpi="95.995522"
     inkscape:export-ydpi="95.995522" />
  <polygon
     style="fill:#1eb5ba;stroke:#1eb5ba;stroke-width:0px"
     points="144.705,27.334999 178.675,12.252 194.931,50.410999 161.071,65.351997 "
     id="polygon104"
     transform="matrix(1.0288553,0,0,1.0140651,-6.9591766,-2.3830523)"
     inkscape:export-xdpi="95.995522"
     inkscape:export-ydpi="95.995522" />
  <polygon
     style="fill:#1eb5ba;stroke:#1eb5ba;stroke-width:0px"
     points="213.735,5.0910001 251.57899,2.3499999 254.345,43.521999 216.896,46.408001 "
     id="polygon106"
     transform="matrix(1.0288553,0,0,1.0140651,-6.9591766,-2.3830523)"
     inkscape:export-xdpi="95.995522"
     inkscape:export-ydpi="95.995522" />
  <polygon
     style="fill:#1eb5ba;stroke:#1eb5ba;stroke-width:0px"
     points="279.17599,3.9430001 316.159,7.5159998 311.319,48.976002 274.59,44.686001 "
     id="polygon108"
     transform="matrix(1.0288553,0,0,1.0140651,-6.9591766,-2.3830523)"
     inkscape:export-xdpi="95.995522"
     inkscape:export-ydpi="95.995522" />
  <polygon
     style="fill:#1eb5ba;stroke:#1eb5ba;stroke-width:0px"
     points="332.276,55.608002 351.60699,19.284 384.07999,35.771999 365.00201,72.958 "
     id="polygon110"
     transform="matrix(1.0288553,0,0,1.0140651,-6.9591766,-2.3830523)"
     inkscape:export-xdpi="95.995522"
     inkscape:export-ydpi="95.995522" />
  <polygon
     style="fill:#1eb5ba;stroke:#1eb5ba;stroke-width:0px"
     points="439.117,86.493 410.249,115.13 384.073,88.987 413.401,59.682 "
     id="polygon112"
     transform="matrix(1.0288553,0,0,1.0140651,-3.6027266,-6.5183013)"
     inkscape:export-xdpi="95.995522"
     inkscape:export-ydpi="95.995522" />
  <polygon
     style="fill:#1eb5ba;stroke:#1eb5ba;stroke-width:0px"
     points="422.95901,130.46201 457.23999,108.803 476.98599,140.09599 441.94,162.33 "
     id="polygon114"
     transform="matrix(1.0288553,0,0,1.0140651,-6.9591766,-2.3830523)"
     inkscape:export-xdpi="95.995522"
     inkscape:export-ydpi="95.995522" />
  <polygon
     style="fill:#1eb5ba;stroke:#1eb5ba;stroke-width:0px"
     points="444.793,181.582 485.73401,174.16701 491.86899,211.136 451.53601,217.39799 "
     id="polygon116"
     transform="matrix(1.0288553,0,0,1.0140651,-6.9591766,-2.3830523)"
     inkscape:export-xdpi="95.995522"
     inkscape:export-ydpi="95.995522" />
  <polygon
     style="fill:#1eb5ba;stroke:#1eb5ba;stroke-width:0px"
     points="452.92801,241.155 492.741,243.964 489.32901,280.48199 449.146,276.97101 "
     id="polygon118"
     transform="matrix(1.0288553,0,0,1.0140651,-6.9591766,-2.3830523)"
     inkscape:export-xdpi="95.995522"
     inkscape:export-ydpi="95.995522" />
  <polygon
     style="fill:#1eb5ba;stroke:#1eb5ba;stroke-width:0px"
     points="447.36499,297.23599 486.12601,311.62299 473.241,346.487 434.63699,332.07501 "
     id="polygon120"
     transform="matrix(1.0288553,0,0,1.0140651,-6.9591766,-2.3830523)"
     inkscape:export-xdpi="95.995522"
     inkscape:export-ydpi="95.995522" />
  <polygon
     style="fill:#1eb5ba;stroke:#1eb5ba;stroke-width:0px"
     points="424.81201,350.16101 457.93399,375.59799 436.02802,404.82401 402.76199,380.263 "
     id="polygon122"
     transform="matrix(1.0288553,0,0,1.0140651,-6.9591766,-2.3830523)"
     inkscape:export-xdpi="95.995522"
     inkscape:export-ydpi="95.995522" />
  <polygon
     style="fill:#1eb5ba;stroke:#1eb5ba;stroke-width:0px"
     points="387.108,395.12399 413.08801,427.55301 384.04099,450.46399 358.29199,418.23499 "
     id="polygon124"
     transform="matrix(1.0288553,0,0,1.0140651,-6.9591766,-2.3830523)"
     inkscape:export-xdpi="95.995522"
     inkscape:export-ydpi="95.995522" />
  <polygon
     style="fill:#1eb5ba;stroke:#1eb5ba;stroke-width:0px"
     points="340.23599,430.15201 357.19501,467.16699 323.78799,482.48499 306.909,445.595 "
     id="polygon126"
     transform="matrix(1.0288553,0,0,1.0140651,-6.9591766,-2.3830523)"
     inkscape:export-xdpi="95.995522"
     inkscape:export-ydpi="95.995522" />
  <polygon
     style="fill:#1eb5ba;stroke:#1eb5ba;stroke-width:0px"
     points="283.328,451.50201 287.28101,491.44901 251.618,495.41501 247.52,455.29199 "
     id="polygon128"
     transform="matrix(1.0288553,0,0,1.0140651,-6.9591766,-2.3830523)"
     inkscape:export-xdpi="95.995522"
     inkscape:export-ydpi="95.995522" />
  <polygon
     style="fill:#1eb5ba;stroke:#1eb5ba;stroke-width:0px"
     points="222.961,454.66 211.729,494.90799 176.11501,485.49899 187.153,444.46701 "
     id="polygon130"
     transform="matrix(1.0288553,0,0,1.0140651,-6.9591766,-2.3830523)"
     inkscape:export-xdpi="95.995522"
     inkscape:export-ydpi="95.995522" />
  <polygon
     style="fill:#1eb5ba;stroke:#1eb5ba;stroke-width:0px"
     points="164.965,441.83099 141.22099,474.69501 111.246,453.32199 135.105,419.94601 "
     id="polygon132"
     transform="matrix(1.0288553,0,0,1.0140651,-6.9591766,-2.3830523)"
     inkscape:export-xdpi="95.995522"
     inkscape:export-ydpi="95.995522" />
  <path
     d="M 252.05355,249.14106 M 342.89139,103.33187 A 173.59874,171.10313 0 1 0 161.21577,394.9502 173.59874,171.10313 0 1 0 342.89139,103.33187 Z M 252.05355,249.14106 M 327.31175,128.3397 A 143.82476,141.75713 0 0 1 176.79537,369.94238 143.82476,141.75713 0 0 1 327.31175,128.3397 Z"
     style="fill:#1e1eba;stroke-width:1.02152"
     bx:shape="ring 875.455 419.091 139.791 139.791 168.73 168.73 1@7b69bafe"
     id="path134"
     inkscape:export-xdpi="95.995522"
     inkscape:export-ydpi="95.995522" />
  <rect
     x="107.36206"
     y="176.23639"
     width="288.7337"
     height="30.056883"
     style="fill:#1e1eba;stroke-width:1.02152"
     id="rect136"
     inkscape:export-xdpi="95.995522"
     inkscape:export-ydpi="95.995522" />
  <rect
     x="108.98461"
     y="293.58698"
     width="288.7337"
     height="30.056883"
     style="fill:#1e1eba;stroke-width:1.02152"
     id="rect138"
     inkscape:export-xdpi="95.995522"
     inkscape:export-ydpi="95.995522" />
  <rect
     x="237.13057"
     y="104.61095"
     width="31.144484"
     height="292.2576"
     style="fill:#1e1eba;stroke-width:1.02152"
     id="rect140"
     inkscape:export-xdpi="95.995522"
     inkscape:export-ydpi="95.995522" />
  <path
     style="fill:#1e1eba;fill-opacity:1;stroke:none;stroke-width:0;stroke-miterlimit:4;stroke-dasharray:none"
     d="m 264.18174,393.17109 c 97.75901,-91.50499 79.55172,-235.4672 4.29216,-285.00784 -1.09724,-0.83534 24.45846,2.61101 38.48105,2.78844 54.58836,47.84807 75.18437,192.57517 -0.72429,274.08413 -5.4742,10.12565 -41.17007,15.0935 -42.04892,8.13527 z"
     id="path184"
     sodipodi:nodetypes="ccccc"
     inkscape:export-xdpi="95.995522"
     inkscape:export-ydpi="95.995522" />
  <path
     style="fill:#1e1eba;fill-opacity:1;stroke:none;stroke-width:0;stroke-miterlimit:4;stroke-dasharray:none"
     d="m 249.5293,402.04377 c -101.91248,-92.6746 -88.19473,-246.61536 0.49058,-303.59944 1.0972,-0.835334 -28.0547,7.16712 -42.07722,7.34455 -77.13541,63.0532 -79.93107,206.61068 -5.209,278.76265 5.474,10.12562 45.91669,24.45049 46.79564,17.49224 z"
     id="path184-6"
     sodipodi:nodetypes="ccccc"
     inkscape:export-xdpi="95.995522"
     inkscape:export-ydpi="95.995522" />
</svg>
